<svg width="300" height="300" viewBox="0 0 300 300" xmlns="http://www.w3.org/2000/svg">
  <rect width="300" height="300" rx="60" fill="#1B4D37"/>

  <!-- Casa central (grande, CREME) -->
  <rect x="88" y="128" width="124" height="98" fill="#FEFAE0"/>
  <polygon points="150,52 230,128 70,128" fill="#F0EAC8"/>
  <rect x="110" y="142" width="24" height="18" rx="3" fill="#85C1A3"/>
  <rect x="166" y="142" width="24" height="18" rx="3" fill="#85C1A3"/>
  <rect x="132" y="182" width="36" height="44" rx="3" fill="#2D6A4F"/>
  <circle cx="163" cy="206" r="3" fill="#85C1A3"/>

  <!-- Casa esquerda -->
  <rect x="18" y="188" width="90" height="74" fill="#52B788"/>
  <polygon points="63,118 124,188 2,188" fill="#3D9970"/>
  <rect x="28" y="202" width="22" height="17" rx="2" fill="#D8F3DC"/>
  <rect x="76" y="202" width="22" height="17" rx="2" fill="#D8F3DC"/>
  <rect x="44" y="226" width="24" height="36" rx="2" fill="#1B4D37"/>

  <!-- Casa direita -->
  <rect x="192" y="188" width="90" height="74" fill="#52B788"/>
  <polygon points="237,118 298,188 176,188" fill="#3D9970"/>
  <rect x="202" y="202" width="22" height="17" rx="2" fill="#D8F3DC"/>
  <rect x="250" y="202" width="22" height="17" rx="2" fill="#D8F3DC"/>
  <rect x="218" y="226" width="24" height="36" rx="2" fill="#1B4D37"/>

  <!-- Linha em U curva -->
  <path d="M63,256 Q90,230 150,222 Q210,230 237,256" fill="none" stroke="#E76F51" stroke-width="2.5" stroke-dasharray="7,5"/>
  <circle cx="63" cy="256" r="6" fill="#E76F51"/>
  <circle cx="63" cy="256" r="2.5" fill="white"/>
  <circle cx="150" cy="222" r="6" fill="#E76F51"/>
  <circle cx="150" cy="222" r="2.5" fill="white"/>
  <circle cx="237" cy="256" r="6" fill="#E76F51"/>
  <circle cx="237" cy="256" r="2.5" fill="white"/>
</svg>
